<svg xmlns="http://www.w3.org/2000/svg" viewBox="0 0 1279 640"><defs><style>.cls-1{fill:#fff;stroke:#ccc;stroke-miterlimit:10;stroke-width:0.25px;}</style></defs><title>baseLineGrid</title><g id="Camada_2" data-name="Camada 2"><g id="Camada_1-2" data-name="Camada 1"><line class="cls-1" x1="335" x2="335" y2="640"/><line class="cls-1" x1="302" x2="302" y2="640"/><line class="cls-1" x1="655.5" x2="655.5" y2="640"/><line class="cls-1" x1="622.5" x2="622.5" y2="640"/><line class="cls-1" x1="976" x2="976" y2="640"/><line class="cls-1" x1="943" x2="943" y2="640"/><line class="cls-1" x1="1263.5" x2="1263.5" y2="640"/><line class="cls-1" x1="14.5" x2="14.5" y2="640"/><line class="cls-1" y1="109.5" x2="1279" y2="109.5"/><line class="cls-1" y1="93.5" x2="1279" y2="93.5"/><line class="cls-1" y1="77.5" x2="1279" y2="77.5"/><line class="cls-1" y1="158.5" x2="1279" y2="158.5"/><line class="cls-1" y1="142.5" x2="1279" y2="142.5"/><line class="cls-1" y1="126.5" x2="1279" y2="126.5"/><line class="cls-1" y1="44.5" x2="1279" y2="44.5"/><line class="cls-1" y1="28.5" x2="1279" y2="28.5"/><line class="cls-1" y1="606.5" x2="1279" y2="606.5"/><line class="cls-1" y1="590.5" x2="1279" y2="590.5"/><line class="cls-1" y1="61.5" x2="1279" y2="61.5"/><line class="cls-1" y1="204.5" x2="1279" y2="204.5"/><line class="cls-1" y1="188.5" x2="1279" y2="188.5"/><line class="cls-1" y1="172.5" x2="1279" y2="172.5"/><line class="cls-1" y1="253.5" x2="1279" y2="253.5"/><line class="cls-1" y1="237.5" x2="1279" y2="237.5"/><line class="cls-1" y1="221.5" x2="1279" y2="221.5"/><line class="cls-1" y1="302.5" x2="1279" y2="302.5"/><line class="cls-1" y1="286.5" x2="1279" y2="286.5"/><line class="cls-1" y1="270.5" x2="1279" y2="270.5"/><line class="cls-1" y1="351.5" x2="1279" y2="351.5"/><line class="cls-1" y1="335.5" x2="1279" y2="335.5"/><line class="cls-1" y1="319.5" x2="1279" y2="319.5"/><line class="cls-1" y1="397.5" x2="1279" y2="397.5"/><line class="cls-1" y1="381.5" x2="1279" y2="381.5"/><line class="cls-1" y1="365.5" x2="1279" y2="365.5"/><line class="cls-1" y1="446.5" x2="1279" y2="446.5"/><line class="cls-1" y1="430.5" x2="1279" y2="430.5"/><line class="cls-1" y1="414.5" x2="1279" y2="414.5"/><line class="cls-1" y1="478.5" x2="1279" y2="478.5"/><line class="cls-1" y1="462.5" x2="1279" y2="462.5"/><line class="cls-1" y1="524.5" x2="1279" y2="524.5"/><line class="cls-1" y1="508.5" x2="1279" y2="508.5"/><line class="cls-1" y1="492.5" x2="1279" y2="492.5"/><line class="cls-1" y1="573.5" x2="1279" y2="573.5"/><line class="cls-1" y1="557.5" x2="1279" y2="557.5"/><line class="cls-1" y1="541.5" x2="1279" y2="541.5"/></g></g></svg>