<svg xmlns="http://www.w3.org/2000/svg" viewBox="0 0 193.25 145"><defs><style>.cls-1,.cls-3,.cls-4,.cls-5,.cls-6{fill:none;}.cls-1,.cls-5{stroke:#666;}.cls-1,.cls-2,.cls-3,.cls-4,.cls-5,.cls-6{stroke-miterlimit:10;}.cls-2{fill:#bde5cd;}.cls-2,.cls-3,.cls-4{stroke:#1f7047;}.cls-3{stroke-width:0.25px;}.cls-5,.cls-6{stroke-width:0.5px;}.cls-6{stroke:#a5a5a5;}</style></defs><title>designEditorial_4</title><g id="Camada_2" data-name="Camada 2"><g id="Camada_1-2" data-name="Camada 1"><polygon class="cls-1" points="192.75 144.5 0.75 144.05 0.75 0.5 192.25 0.5 192.75 144.5"/><rect class="cls-2" x="22.08" y="16.5" width="64" height="96" transform="translate(108.16 129) rotate(180)"/><line class="cls-3" x1="96.75" y1="0.5" x2="96.75" y2="144.5"/><rect class="cls-2" x="107.42" y="16.5" width="64" height="96" transform="translate(278.83 129) rotate(180)"/><line class="cls-4" x1="0.75" y1="144.5" x2="96.75" y2="0.5"/><line class="cls-4" x1="0.75" y1="144.5" x2="192.5" y2="0.5"/><line class="cls-4" x1="192.5" y1="144.5" x2="0.75" y2="0.5"/><circle class="cls-4" cx="48.62" cy="64.38" r="48.12"/><line class="cls-4" x1="96.75" y1="0.5" x2="192.75" y2="144.5"/><line class="cls-4" x1="64.75" y1="48.5" x2="128.75" y2="0.5"/><line class="cls-5" x1="96.62" y1="0.5" x2="96.62" y2="144.5"/><line class="cls-6" x1="96.75" y1="16.5" x2="192.75" y2="16.5"/><line class="cls-6" x1="96.75" y1="32.5" x2="192.75" y2="32.5"/><line class="cls-6" x1="96.75" y1="48.5" x2="192.75" y2="48.5"/><line class="cls-6" x1="96.75" y1="64.5" x2="192.75" y2="64.5"/><line class="cls-6" x1="96.75" y1="80.5" x2="192.75" y2="80.5"/><line class="cls-6" x1="96.75" y1="96.5" x2="192.75" y2="96.5"/><line class="cls-6" x1="96.75" y1="112.5" x2="192.75" y2="112.5"/><line class="cls-6" x1="96.75" y1="128.5" x2="192.75" y2="128.5"/><line class="cls-6" x1="182.08" y1="0.5" x2="182.08" y2="144.5"/><line class="cls-6" x1="171.42" y1="0.5" x2="171.42" y2="144.5"/><line class="cls-6" x1="160.75" y1="0.5" x2="160.75" y2="144.5"/><line class="cls-6" x1="150.08" y1="0.5" x2="150.08" y2="144.5"/><line class="cls-6" x1="139.42" y1="0.5" x2="139.42" y2="144.5"/><line class="cls-6" x1="128.75" y1="0.5" x2="128.75" y2="144.5"/><line class="cls-6" x1="107.42" y1="0.5" x2="107.42" y2="144.5"/><line class="cls-6" x1="118.08" y1="0.5" x2="118.08" y2="144.5"/><line class="cls-6" x1="128.62" y1="0.5" x2="128.62" y2="48.5"/><line class="cls-4" x1="128.62" y1="0.5" x2="128.62" y2="48.5"/></g></g></svg>