<svg xmlns="http://www.w3.org/2000/svg" viewBox="0 0 278.2 208.5"><defs><style>.cls-1,.cls-3,.cls-4{fill:none;}.cls-1{stroke:#666;}.cls-1,.cls-2,.cls-3,.cls-4{stroke-miterlimit:10;}.cls-1,.cls-2,.cls-4{stroke-width:0.5px;}.cls-2{fill:#bde5cd;}.cls-2,.cls-3,.cls-4{stroke:#1f7047;}.cls-3{stroke-width:0.25px;}</style></defs><title>designEditorial</title><g id="Camada_2" data-name="Camada 2"><g id="Camada_1-2" data-name="Camada 1"><polygon class="cls-1" points="277.94 208.25 0.61 207.6 0.61 0.25 277.22 0.25 277.94 208.25"/><rect class="cls-2" x="31.42" y="23.36" width="92.45" height="138.67" transform="translate(155.29 185.39) rotate(180)"/><line class="cls-3" x1="139.28" y1="0.25" x2="139.28" y2="208.25"/><rect class="cls-2" x="154.68" y="23.36" width="92.45" height="138.67" transform="translate(401.82 185.39) rotate(180)"/><line class="cls-4" x1="0.61" y1="208.25" x2="139.28" y2="0.25"/><line class="cls-4" x1="0.61" y1="208.25" x2="277.59" y2="0.25"/><line class="cls-4" x1="277.59" y1="208.25" x2="0.61" y2="0.25"/><circle class="cls-4" cx="69.76" cy="92.51" r="69.51"/><line class="cls-4" x1="139.28" y1="0.25" x2="277.94" y2="208.25"/><line class="cls-4" x1="93.06" y1="69.58" x2="185.5" y2="0.25"/><line class="cls-1" x1="139.1" y1="0.25" x2="139.1" y2="208.25"/><line class="cls-3" x1="139.28" y1="23.36" x2="277.94" y2="23.36"/><line class="cls-3" x1="139.28" y1="46.47" x2="277.94" y2="46.47"/><line class="cls-3" x1="139.28" y1="69.58" x2="277.94" y2="69.58"/><line class="cls-3" x1="139.28" y1="92.69" x2="277.94" y2="92.69"/><line class="cls-3" x1="139.28" y1="115.81" x2="277.94" y2="115.81"/><line class="cls-3" x1="139.28" y1="138.92" x2="277.94" y2="138.92"/><line class="cls-3" x1="139.28" y1="162.03" x2="277.94" y2="162.03"/><line class="cls-3" x1="139.28" y1="185.14" x2="277.94" y2="185.14"/><line class="cls-3" x1="262.54" y1="0.25" x2="262.54" y2="208.25"/><line class="cls-3" x1="247.13" y1="0.25" x2="247.13" y2="208.25"/><line class="cls-3" x1="231.72" y1="0.25" x2="231.72" y2="208.25"/><line class="cls-3" x1="216.31" y1="0.25" x2="216.31" y2="208.25"/><line class="cls-3" x1="200.91" y1="0.25" x2="200.91" y2="208.25"/><line class="cls-3" x1="185.5" y1="0.25" x2="185.5" y2="208.25"/><line class="cls-3" x1="154.68" y1="0.25" x2="154.68" y2="208.25"/><line class="cls-3" x1="170.09" y1="0.25" x2="170.09" y2="208.25"/><line class="cls-4" x1="185.32" y1="0.25" x2="185.32" y2="69.58"/></g></g></svg>