<svg xmlns="http://www.w3.org/2000/svg" viewBox="0 0 1279 640"><defs><style>.cls-1{fill:none;stroke:#ccc;stroke-miterlimit:10;}</style></defs><title>Ativo 1</title><g id="Camada_2" data-name="Camada 2"><g id="Camada_1-2" data-name="Camada 1"><line class="cls-1" x1="79.5" x2="79.5" y2="640"/><line class="cls-1" x1="159.5" x2="159.5" y2="640"/><line class="cls-1" x1="239.5" x2="239.5" y2="640"/><line class="cls-1" x1="319.5" x2="319.5" y2="640"/><line class="cls-1" x1="399.5" x2="399.5" y2="640"/><line class="cls-1" x1="479.5" x2="479.5" y2="640"/><line class="cls-1" x1="559.5" x2="559.5" y2="640"/><line class="cls-1" x1="639.5" x2="639.5" y2="640"/><line class="cls-1" x1="719.5" x2="719.5" y2="640"/><line class="cls-1" x1="799.5" x2="799.5" y2="640"/><line class="cls-1" x1="879.5" x2="879.5" y2="640"/><line class="cls-1" x1="959.5" x2="959.5" y2="640"/><line class="cls-1" x1="1039.5" x2="1039.5" y2="640"/><line class="cls-1" x1="1119.5" x2="1119.5" y2="640"/><line class="cls-1" x1="1199.5" x2="1199.5" y2="640"/><line class="cls-1" y1="240.5" x2="1279" y2="240.5"/><line class="cls-1" y1="160.5" x2="1279" y2="160.5"/><line class="cls-1" y1="80.5" x2="1279" y2="80.5"/><line class="cls-1" y1="479.5" x2="1279" y2="479.5"/><line class="cls-1" y1="559.5" x2="1279" y2="559.5"/><line class="cls-1" y1="399.5" x2="1279" y2="399.5"/><line class="cls-1" y1="319.5" x2="1279" y2="319.5"/></g></g></svg>