<svg xmlns="http://www.w3.org/2000/svg" viewBox="0 0 1279 559.5"><defs><style>.cls-1{fill:none;stroke:#ccc;stroke-miterlimit:10;}</style></defs><title>homeBg1600</title><g id="Camada_2" data-name="Camada 2"><g id="Camada_1-2" data-name="Camada 1"><line class="cls-1" x1="81.1" x2="81.1" y2="559.5"/><line class="cls-1" x1="161.11" x2="161.11" y2="559.5"/><line class="cls-1" x1="241.12" x2="241.12" y2="559.5"/><line class="cls-1" x1="321.13" x2="321.13" y2="559.5"/><line class="cls-1" x1="401.15" x2="401.15" y2="559.5"/><line class="cls-1" x1="481.16" x2="481.16" y2="559.5"/><line class="cls-1" x1="561.17" x2="561.17" y2="559.5"/><line class="cls-1" x1="641.18" x2="641.18" y2="559.5"/><line class="cls-1" x1="721.19" x2="721.19" y2="559.5"/><line class="cls-1" x1="801.2" x2="801.2" y2="559.5"/><line class="cls-1" x1="881.21" x2="881.21" y2="559.5"/><line class="cls-1" x1="961.22" x2="961.22" y2="559.5"/><line class="cls-1" x1="1041.23" x2="1041.23" y2="559.5"/><line class="cls-1" x1="1121.24" x2="1121.24" y2="559.5"/><line class="cls-1" x1="1201.26" x2="1201.26" y2="559.5"/><line class="cls-1" y1="160.04" x2="1279" y2="160.04"/><line class="cls-1" y1="80.4" x2="1279" y2="80.4"/><line class="cls-1" y1="398.97" x2="1279" y2="398.97"/><line class="cls-1" y1="478.61" x2="1279" y2="478.61"/><line class="cls-1" y1="319.32" x2="1279" y2="319.32"/><line class="cls-1" y1="239.68" x2="1279" y2="239.68"/></g></g></svg>