<svg xmlns="http://www.w3.org/2000/svg" viewBox="0 0 193.04 145"><defs><style>.cls-1{fill:#bde5cd;stroke:#1f7047;}.cls-1,.cls-2,.cls-3{stroke-miterlimit:10;}.cls-2{fill:none;}.cls-2,.cls-3{stroke:#666;}.cls-3{fill:#fff;}</style></defs><title>identidadeVisual_2</title><g id="Camada_2" data-name="Camada 2"><g id="Camada_1-2" data-name="Camada 1"><rect class="cls-1" x="96.46" y="112.5" width="96.09" height="32" transform="translate(289 257) rotate(180)"/><rect class="cls-1" x="160.54" y="64.5" width="32" height="32" transform="translate(353.09 161) rotate(180)"/><rect class="cls-1" x="96.46" y="80.5" width="52.09" height="16" transform="translate(245 177) rotate(180)"/><rect class="cls-2" x="0.5" y="112.5" width="80" height="32" transform="translate(81 257) rotate(180)"/><rect class="cls-1" x="85.91" y="53.73" width="53.23" height="10.65" transform="translate(225.04 118.1) rotate(180)"/><circle class="cls-1" cx="112.52" cy="21.96" r="21.46"/><rect class="cls-1" x="0.71" y="78.21" width="63.79" height="18.29" transform="translate(65.21 174.71) rotate(180)"/><circle class="cls-1" cx="32.5" cy="32.5" r="32"/><rect class="cls-1" x="160.54" y="27.17" width="32" height="5.33" transform="translate(353.09 59.67) rotate(180)"/><circle class="cls-1" cx="176.54" cy="11.17" r="10.67"/><rect class="cls-1" x="32.5" y="124.5" width="38.01" height="8" transform="translate(103.01 257) rotate(180)"/><circle class="cls-1" cx="16.62" cy="128.5" r="8"/><rect class="cls-3" x="140.38" y="124.5" width="32" height="8" transform="translate(312.75 257) rotate(180)"/><circle class="cls-3" cx="124.62" cy="128.5" r="8"/><rect class="cls-3" x="116.17" y="84.5" width="22.76" height="8" transform="translate(255.1 177) rotate(180)"/><circle class="cls-3" cx="107.8" cy="88.5" r="4.62"/><rect class="cls-3" x="168.29" y="86.44" width="16.5" height="4.12" transform="translate(353.09 177) rotate(180)"/><circle class="cls-3" cx="176.54" cy="76.44" r="6"/></g></g></svg>