<svg xmlns="http://www.w3.org/2000/svg" viewBox="0 0 193.54 145"><defs><style>.cls-1{fill:#bde5cd;stroke:#1f7047;}.cls-1,.cls-2,.cls-3{stroke-miterlimit:10;}.cls-2{fill:#fff;}.cls-2,.cls-3{stroke:#666;}.cls-3{fill:none;}</style></defs><title>identidadeVisual_4</title><g id="Camada_2" data-name="Camada 2"><g id="Camada_1-2" data-name="Camada 1"><rect class="cls-1" x="96.96" y="112.5" width="96.09" height="32" transform="translate(290 257) rotate(180)"/><rect class="cls-1" x="161.04" y="64.5" width="32" height="32" rx="4.15" transform="translate(354.09 161) rotate(180)"/><rect class="cls-1" x="96.96" y="80.5" width="52.09" height="16" rx="3.84" transform="translate(246 177) rotate(180)"/><rect class="cls-1" x="96.39" y="53.83" width="53.33" height="10.67" rx="3.33" transform="translate(246.1 118.33) rotate(180)"/><circle class="cls-1" cx="123.05" cy="22" r="21.5"/><rect class="cls-1" x="0.68" y="96.24" width="56.7" height="16.26" rx="4.76" transform="translate(58.07 208.74) rotate(180)"/><circle class="cls-1" cx="28.94" cy="55.61" r="28.44"/><rect class="cls-1" x="161.04" y="27.17" width="32" height="5.33" rx="2.67" transform="translate(354.09 59.67) rotate(180)"/><circle class="cls-1" cx="177.04" cy="11.17" r="10.67"/><rect class="cls-1" x="168.21" y="54.39" width="17.68" height="2.95" rx="1.47" transform="translate(354.09 111.73) rotate(-180)"/><circle class="cls-1" cx="177.04" cy="45.55" r="5.89"/><rect class="cls-2" x="140.88" y="124.5" width="32" height="8" transform="translate(313.75 257) rotate(180)"/><circle class="cls-2" cx="125.12" cy="128.5" r="8"/><rect class="cls-2" x="116.67" y="84.5" width="22.76" height="8" transform="translate(256.1 177) rotate(180)"/><circle class="cls-2" cx="108.3" cy="88.5" r="4.62"/><rect class="cls-2" x="168.79" y="86.44" width="16.5" height="4.12" transform="translate(354.09 177) rotate(180)"/><circle class="cls-2" cx="177.04" cy="76.44" r="6"/><line class="cls-2" x1="64.42" y1="45.55" x2="91.32" y2="21.96"/><line class="cls-3" x1="64.57" y1="102.94" x2="89" y2="127.37"/><line class="cls-3" x1="65.23" y1="74.25" x2="89" y2="76.44"/></g></g></svg>