<svg xmlns="http://www.w3.org/2000/svg" viewBox="0 0 259.32 200.5"><defs><style>.cls-1{fill:#bde5cd;stroke:#1f7047;}.cls-1,.cls-2,.cls-3{stroke-miterlimit:10;stroke-width:0.5px;}.cls-2{fill:none;}.cls-2,.cls-3{stroke:#666;}.cls-3{fill:#fff;}</style></defs><title>identidadeVisual</title><g id="Camada_2" data-name="Camada 2"><g id="Camada_1-2" data-name="Camada 1"><rect class="cls-1" x="141.43" y="153.19" width="117.65" height="47.06" transform="translate(400.5 353.44) rotate(180)"/><rect class="cls-1" x="212.01" y="0.25" width="47.06" height="47.06" transform="translate(471.09 47.56) rotate(180)"/><rect class="cls-1" x="117.77" y="0.25" width="76.6" height="23.53" transform="translate(312.14 24.03) rotate(180)"/><rect class="cls-2" x="0.25" y="153.19" width="117.65" height="47.06" transform="translate(118.15 353.44) rotate(180)"/><rect class="cls-1" x="106.13" y="106.13" width="58.82" height="11.76" transform="translate(271.09 224.03) rotate(180)"/><circle class="cls-1" cx="135.54" cy="71.02" r="23.71"/><rect class="cls-1" x="0.56" y="94.37" width="82.05" height="23.53" transform="translate(83.16 212.26) rotate(180)"/><circle class="cls-1" cx="41.58" cy="43.34" r="39.27"/><rect class="cls-1" x="188.49" y="112.01" width="35.29" height="5.88" transform="translate(412.26 229.91) rotate(180)"/><circle class="cls-1" cx="206.13" cy="94.37" r="11.76"/><rect class="cls-1" x="47.31" y="170.84" width="58.82" height="11.76" transform="translate(153.44 353.44) rotate(180)"/><circle class="cls-1" cx="23.96" cy="176.72" r="11.76"/><rect class="cls-3" x="188.49" y="170.84" width="47.06" height="11.76" transform="translate(424.03 353.44) rotate(180)"/><circle class="cls-3" cx="165.32" cy="176.72" r="11.76"/><rect class="cls-1" x="247.13" y="114.5" width="11.76" height="3.4" transform="translate(506.01 232.4) rotate(180)"/><circle class="cls-1" cx="253.01" cy="100.07" r="6.07"/><rect class="cls-3" x="146.76" y="6.13" width="33.46" height="11.76" transform="translate(326.99 24.03) rotate(180)"/><circle class="cls-3" cx="134.45" cy="12.01" r="6.8"/><rect class="cls-3" x="223.41" y="32.51" width="24.26" height="6.07" transform="translate(471.09 71.09) rotate(180)"/><circle class="cls-3" cx="235.54" cy="17.81" r="8.82"/></g></g></svg>