<svg xmlns="http://www.w3.org/2000/svg" viewBox="0 0 193 145"><defs><style>.cls-1,.cls-4,.cls-5{fill:none;}.cls-1,.cls-3,.cls-4,.cls-5{stroke:#666;}.cls-1,.cls-2,.cls-3,.cls-4,.cls-5{stroke-miterlimit:10;}.cls-2{fill:#bde5cd;stroke:#1f7047;}.cls-3{fill:#fff;}.cls-4{stroke-dasharray:3.99 3.99;}.cls-5{stroke-dasharray:4 4;}</style></defs><title>designEditorial_5</title><g id="Camada_2" data-name="Camada 2"><g id="Camada_1-2" data-name="Camada 1"><polygon class="cls-1" points="192.5 144.5 0.5 144.05 0.5 0.5 192 0.5 192.5 144.5"/><polygon class="cls-2" points="134.9 144.5 192.5 144.5 192.5 90.5 58.1 0.5 0.5 0.5 0.5 54.5 134.9 144.5"/><rect class="cls-3" x="77.39" y="59.64" width="38.23" height="30.86" transform="translate(193 150.14) rotate(180)"/><rect class="cls-2" x="77.39" y="9.5" width="38.23" height="30.86" transform="translate(193 49.86) rotate(180)"/><rect class="cls-2" x="77.39" y="104.64" width="38.23" height="30.86" transform="translate(193 240.14) rotate(180)"/><rect class="cls-3" x="10.1" y="9.5" width="38.4" height="72" transform="translate(58.6 91) rotate(180)"/><line class="cls-1" x1="64.5" y1="0.5" x2="64.5" y2="2.5"/><line class="cls-4" x1="64.5" y1="6.49" x2="64.5" y2="140.17"/><line class="cls-1" x1="64.5" y1="142.16" x2="64.5" y2="144.16"/><line class="cls-1" x1="128.5" y1="0.5" x2="128.5" y2="2.5"/><line class="cls-5" x1="128.5" y1="6.5" x2="128.5" y2="140.5"/><line class="cls-1" x1="128.5" y1="142.5" x2="128.5" y2="144.5"/><rect class="cls-3" x="142.12" y="90.5" width="38.23" height="45" transform="translate(322.46 226) rotate(180)"/><rect class="cls-2" x="142.12" y="9.5" width="38.23" height="72" transform="translate(322.46 91) rotate(180)"/><rect class="cls-2" x="10.1" y="90.5" width="38.4" height="45" transform="translate(58.6 226) rotate(180)"/></g></g></svg>