<svg xmlns="http://www.w3.org/2000/svg" viewBox="0 0 277.83 208.5"><defs><style>.cls-1{fill:#fff;}.cls-1,.cls-3,.cls-4,.cls-5{stroke:#666;}.cls-1,.cls-2,.cls-3,.cls-4,.cls-5{stroke-miterlimit:10;stroke-width:0.5px;}.cls-2{fill:#bde5cd;stroke:#1f7047;}.cls-3,.cls-4,.cls-5{fill:none;}.cls-4{stroke-dasharray:3.84 3.84;}.cls-5{stroke-dasharray:3.85 3.85;}</style></defs><title>socialMediaPrint</title><g id="Camada_2" data-name="Camada 2"><g id="Camada_1-2" data-name="Camada 1"><rect class="cls-1" x="162.03" y="0.25" width="115.24" height="40.44"/><polygon class="cls-2" points="208.25 40.69 266.03 40.69 205.36 0.25 162.03 0.25 162.03 9.88 208.25 40.69"/><polygon class="cls-2" points="17.58 156.25 127.36 156.25 127.36 144.69 17.58 69.58 17.58 156.25"/><polygon class="cls-2" points="127.36 133.14 127.36 81.14 40.69 17.58 17.58 17.58 17.58 58.03 127.36 133.14"/><polygon class="cls-3" points="277.58 98.47 162.03 98.17 162.03 0.25 277.27 0.25 277.58 98.47"/><polygon class="cls-3" points="145.06 208.25 0.25 207.6 0.25 0.25 144.69 0.25 145.06 208.25"/><polygon class="cls-3" points="277.58 208.25 162.03 207.96 162.03 115.81 277.28 115.81 277.58 208.25"/><rect class="cls-2" x="46.47" y="167.81" width="80.89" height="22.57" transform="translate(173.83 358.18) rotate(180)"/><rect class="cls-2" x="17.58" y="167.81" width="23.11" height="22.57" transform="translate(58.28 358.18) rotate(180)"/><polygon class="cls-2" points="242.92 208.25 277.58 208.25 277.58 173.58 196.69 115.81 162.03 115.81 162.03 150.47 242.92 208.25"/><rect class="cls-1" x="208.3" y="153.77" width="23.01" height="19.81" transform="translate(439.61 327.36) rotate(180)"/><rect class="cls-2" x="208.3" y="121.58" width="23.01" height="19.81" transform="translate(439.61 262.98) rotate(180)"/><rect class="cls-2" x="208.3" y="182.66" width="23.01" height="19.81" transform="translate(439.61 385.13) rotate(180)"/><rect class="cls-1" x="167.81" y="121.58" width="23.11" height="46.22" transform="translate(358.72 289.39) rotate(180)"/><rect class="cls-1" x="202.47" y="46.47" width="69.33" height="23.11" transform="translate(474.28 116.06) rotate(180)"/><rect class="cls-1" x="202.47" y="75.36" width="69.33" height="23.11" transform="translate(474.28 173.83) rotate(180)"/><rect class="cls-2" x="167.81" y="69.78" width="28.44" height="23.03" transform="translate(364.05 162.59) rotate(180)"/><rect class="cls-1" x="167.44" y="52.25" width="29.26" height="11.63" transform="translate(364.13 116.13) rotate(180)"/><circle class="cls-1" cx="182.07" cy="37.62" r="8.85"/><line class="cls-3" x1="200.55" y1="115.81" x2="200.55" y2="117.81"/><line class="cls-4" x1="200.55" y1="121.64" x2="200.55" y2="204.11"/><line class="cls-3" x1="200.55" y1="206.03" x2="200.55" y2="208.03"/><line class="cls-3" x1="239.06" y1="115.81" x2="239.06" y2="117.81"/><line class="cls-5" x1="239.06" y1="121.65" x2="239.06" y2="204.33"/><line class="cls-3" x1="239.06" y1="206.25" x2="239.06" y2="208.25"/><rect class="cls-1" x="247.26" y="173.58" width="23.01" height="28.89" transform="translate(517.53 376.06) rotate(180)"/><rect class="cls-2" x="247.26" y="121.58" width="23.01" height="46.22" transform="translate(517.53 289.39) rotate(180)"/><rect class="cls-2" x="167.81" y="173.58" width="23.11" height="28.89" transform="translate(358.72 376.06) rotate(180)"/><polygon class="cls-2" points="127.36 69.58 127.36 17.58 56.84 17.58 127.36 69.58"/><polygon class="cls-2" points="247.26 69.58 271.81 69.58 271.81 46.47 225.58 46.47 214.03 46.47 247.26 69.58"/><rect class="cls-2" x="208.25" y="52.25" width="23.06" height="11.63" transform="translate(439.56 116.13) rotate(180)"/></g></g></svg>