<svg xmlns="http://www.w3.org/2000/svg" viewBox="0 0 193 145"><defs><style>.cls-1{fill:#fff;}.cls-1,.cls-3,.cls-4,.cls-5{stroke:#666;}.cls-1,.cls-2,.cls-3,.cls-4,.cls-5{stroke-miterlimit:10;}.cls-2{fill:#bde5cd;stroke:#1f7047;}.cls-3,.cls-4,.cls-5{fill:none;}.cls-4{stroke-dasharray:3.99 3.99;}.cls-5{stroke-dasharray:4 4;}</style></defs><title>socialMediaPrint_1</title><g id="Camada_2" data-name="Camada 2"><g id="Camada_1-2" data-name="Camada 1"><rect class="cls-1" x="112.5" y="0.5" width="79.78" height="28"/><polygon class="cls-2" points="144.5 28.5 184.5 28.5 142.5 0.5 112.5 0.5 112.5 7.17 144.5 28.5"/><polygon class="cls-1" points="10.23 110.66 90.77 110.66 90.77 102.18 10.23 47.08 10.23 110.66"/><polygon class="cls-2" points="90.77 93.71 90.77 55.55 27.19 8.93 10.23 8.93 10.23 38.6 90.77 93.71"/><polygon class="cls-3" points="192.5 68.5 112.5 68.29 112.5 0.5 192.28 0.5 192.5 68.5"/><polygon class="cls-3" points="100.75 144.5 0.5 144.05 0.5 0.5 100.5 0.5 100.75 144.5"/><polygon class="cls-3" points="192.5 144.5 112.5 144.3 112.5 80.5 192.29 80.5 192.5 144.5"/><rect class="cls-1" x="31.42" y="119.14" width="59.35" height="16.56" transform="translate(122.19 254.84) rotate(180)"/><rect class="cls-1" x="10.23" y="119.14" width="16.96" height="16.56" transform="translate(37.42 254.84) rotate(180)"/><polygon class="cls-2" points="168.5 144.5 192.5 144.5 192.5 120.5 136.5 80.5 112.5 80.5 112.5 104.5 168.5 144.5"/><rect class="cls-1" x="144.54" y="106.79" width="15.93" height="13.71" transform="translate(305 227.29) rotate(180)"/><rect class="cls-2" x="144.54" y="84.5" width="15.93" height="13.71" transform="translate(305 182.71) rotate(180)"/><rect class="cls-2" x="144.54" y="126.79" width="15.93" height="13.71" transform="translate(305 267.29) rotate(180)"/><rect class="cls-1" x="116.5" y="84.5" width="16" height="32" transform="translate(249 201) rotate(180)"/><rect class="cls-1" x="140.5" y="32.5" width="48" height="16" transform="translate(329 81) rotate(180)"/><rect class="cls-1" x="140.5" y="52.5" width="48" height="16" transform="translate(329 121) rotate(180)"/><rect class="cls-2" x="116.5" y="48.64" width="19.69" height="15.94" transform="translate(252.69 113.22) rotate(180)"/><rect class="cls-1" x="116.24" y="36.5" width="20.26" height="8.05" transform="translate(252.74 81.05) rotate(180)"/><circle class="cls-1" cx="126.37" cy="26.37" r="6.13"/><line class="cls-3" x1="139.17" y1="80.5" x2="139.17" y2="82.5"/><line class="cls-4" x1="139.17" y1="86.49" x2="139.17" y2="140.35"/><line class="cls-3" x1="139.17" y1="142.35" x2="139.17" y2="144.35"/><line class="cls-3" x1="165.83" y1="80.5" x2="165.83" y2="82.5"/><line class="cls-5" x1="165.83" y1="86.5" x2="165.83" y2="140.5"/><line class="cls-3" x1="165.83" y1="142.5" x2="165.83" y2="144.5"/><rect class="cls-1" x="171.51" y="120.5" width="15.93" height="20" transform="translate(358.94 261) rotate(180)"/><rect class="cls-2" x="171.51" y="84.5" width="15.93" height="32" transform="translate(358.94 201) rotate(180)"/><rect class="cls-2" x="116.5" y="120.5" width="16" height="20" transform="translate(249 261) rotate(180)"/><polygon class="cls-1" points="90.77 47.08 90.77 8.93 39.03 8.93 90.77 47.08"/><polygon class="cls-2" points="171.51 48.5 188.5 48.5 188.5 32.5 156.5 32.5 148.5 32.5 171.51 48.5"/><rect class="cls-2" x="144.5" y="36.5" width="15.96" height="8.05" transform="translate(304.96 81.05) rotate(180)"/></g></g></svg>